<?xml version="1.0" standalone="no"?>
<!DOCTYPE svg PUBLIC "-//W3C//DTD SVG 20010904//EN"
 "http://www.w3.org/TR/2001/REC-SVG-20010904/DTD/svg10.dtd">
<svg version="1.0" xmlns="http://www.w3.org/2000/svg"
 width="765.000000pt" height="426.000000pt" viewBox="0 0 765.000000 426.000000"
 preserveAspectRatio="xMidYMid meet">
<metadata>
Created by potrace 1.11, written by Peter Selinger 2001-2013
</metadata>
<g transform="translate(0.000000,426.000000) scale(0.100000,-0.100000)"
fill="#000000" stroke="none">
<path d="M3555 3133 c-33 -14 -66 -30 -72 -35 -8 -7 -13 -36 -13 -80 0 -52 -6
-84 -26 -131 -67 -157 -64 -180 26 -175 55 3 55 3 77 50 13 26 34 84 47 130
l24 83 73 0 c59 0 74 3 77 16 1 8 -20 50 -48 92 -59 89 -67 91 -165 50z m145
-72 l41 -64 -64 7 c-48 5 -67 3 -75 -7 -7 -8 -23 -53 -37 -101 -27 -92 -50
-146 -69 -158 -10 -7 -66 -2 -74 7 -2 2 14 45 35 97 30 75 38 106 38 160 1 37
4 71 9 75 14 15 141 61 148 55 4 -4 25 -36 48 -71z"/>
<path d="M4256 2958 c-7 -13 -31 -68 -51 -123 -21 -55 -39 -102 -41 -104 -2
-2 -86 -12 -187 -22 -200 -19 -305 -35 -327 -49 -33 -20 7 -23 118 -7 138 20
371 41 377 35 3 -2 -11 -56 -31 -119 -30 -98 -141 -511 -158 -591 -3 -15 -2
-29 3 -33 6 -3 20 27 31 67 80 272 209 671 221 682 5 4 269 22 269 18 0 -5
-111 -219 -147 -284 -48 -84 -135 -196 -141 -180 -6 18 16 80 54 150 28 52 31
64 19 68 -25 10 -65 -24 -86 -72 -22 -48 -48 -171 -42 -191 19 -55 143 63 223
212 32 61 56 94 46 65 -13 -38 -86 -310 -86 -320 0 -25 18 -5 58 63 24 41 54
87 67 103 l23 29 -5 -62 c-7 -79 11 -84 59 -17 l33 47 5 -43 c7 -57 29 -72 67
-44 58 43 112 194 83 229 -31 38 -93 0 -160 -99 -24 -36 -46 -63 -48 -61 -3 3
10 41 27 85 32 79 33 100 6 100 -24 0 -80 -57 -100 -100 -10 -22 -20 -39 -21
-37 -4 4 50 141 108 274 l40 92 41 5 c23 3 87 10 142 16 154 17 347 50 376 66
25 12 39 33 39 56 0 14 -64 6 -193 -25 -164 -39 -722 -113 -732 -97 -2 3 15
47 37 98 35 79 39 96 30 117 -14 31 -27 32 -46 3z"/>
<path d="M3070 2900 c-45 -8 -73 -23 -122 -68 -40 -36 -68 -80 -68 -104 1 -7
8 1 17 17 56 108 185 166 269 122 132 -68 125 -241 -13 -367 -194 -177 -312
-120 -373 180 -12 58 -28 115 -36 127 -64 99 -294 60 -480 -81 -264 -199 -407
-532 -375 -871 21 -218 151 -409 337 -497 150 -70 250 -63 439 32 119 59 301
186 360 251 23 25 17 22 -25 -13 -209 -174 -483 -301 -613 -283 -142 18 -298
131 -380 275 -105 185 -95 504 26 745 88 176 260 347 413 411 101 42 215 47
251 11 8 -8 25 -64 38 -124 26 -124 66 -211 119 -262 31 -30 44 -35 95 -39 52
-4 66 0 119 28 74 39 164 128 197 194 31 62 34 151 6 212 -34 74 -120 118
-201 104z"/>
<path d="M5627 2732 c-9 -9 -45 -77 -82 -151 -62 -126 -176 -302 -183 -282 -2
5 6 36 18 70 42 126 18 132 -87 24 l-75 -78 43 83 c31 59 40 85 32 93 -20 20
-48 -7 -116 -109 -73 -108 -138 -182 -162 -182 -10 0 -15 10 -15 33 0 40 8 51
39 55 33 3 51 20 72 67 18 40 25 109 13 139 -4 10 -18 16 -35 16 -25 0 -40
-14 -111 -110 -46 -61 -84 -107 -86 -102 -1 4 7 34 18 67 23 66 26 105 8 105
-6 0 -47 -35 -90 -78 -43 -43 -78 -76 -78 -74 0 3 18 38 40 78 52 95 52 122 0
94 -16 -9 -130 -278 -130 -308 0 -25 20 -10 64 46 24 33 62 74 83 92 l38 34 5
-59 c7 -81 26 -83 80 -11 24 31 43 56 44 56 1 0 -1 -26 -4 -58 -8 -85 -1 -106
37 -110 27 -3 40 5 81 45 26 26 58 62 70 78 l23 30 -17 -40 c-44 -108 -42
-147 5 -86 39 52 133 151 142 151 4 0 9 -26 11 -57 5 -88 23 -82 104 31 38 52
74 103 81 113 6 10 -4 -31 -23 -92 -19 -60 -34 -117 -34 -125 0 -8 22 10 49
40 l49 55 0 -98 c0 -57 4 -103 10 -109 19 -19 59 18 120 109 l57 86 5 -33 c7
-47 32 -60 67 -34 60 44 113 192 83 229 -16 19 -54 19 -70 0 -7 -8 -18 -15
-24 -15 -6 0 -27 -26 -45 -57 -62 -107 -155 -243 -164 -243 -13 0 0 147 17
196 10 31 28 49 84 88 74 49 82 66 33 66 -35 0 -74 -29 -142 -106 -30 -34 -55
-61 -57 -59 -4 4 137 336 154 362 8 12 14 29 14 38 0 21 -43 19 -63 -3z"/>
<path d="M3360 2672 c-30 -14 -46 -38 -108 -159 -40 -79 -71 -143 -69 -143 4
0 53 81 140 228 28 49 54 62 119 62 53 0 58 -2 58 -22 0 -29 -139 -272 -165
-289 -11 -7 -40 -16 -65 -20 l-45 -6 43 -2 c64 -2 94 20 149 106 116 182 134
231 94 253 -30 16 -112 12 -151 -8z"/>
<path d="M3742 2559 c-41 -9 -80 -23 -87 -30 -13 -14 -49 -97 -65 -151 -13
-44 4 -50 129 -42 61 4 111 10 111 13 0 3 -4 21 -10 40 -9 31 -7 36 25 64 37
33 46 70 23 99 -20 24 -47 26 -126 7z m92 -15 c25 -10 19 -50 -11 -72 -19 -14
-28 -31 -32 -62 l-6 -44 -88 -3 -87 -4 20 52 c39 99 43 102 112 120 78 21 73
20 92 13z"/>
<path d="M2477 2443 c-51 -163 -69 -253 -70 -358 -2 -153 39 -202 160 -192
108 8 260 92 455 250 130 105 155 118 238 125 68 5 107 19 130 48 11 12 6 11
-20 -5 -28 -17 -51 -21 -114 -21 -93 0 -135 -18 -254 -108 -227 -173 -426
-266 -498 -233 -68 31 -71 198 -10 481 9 41 19 87 23 103 13 62 -6 20 -40 -90z"/>
<path d="M4212 2147 c-6 -7 -31 -64 -56 -127 l-45 -115 -138 -12 c-177 -16
-338 -39 -363 -53 -25 -13 -26 -40 -2 -40 10 0 63 7 118 15 127 18 354 38 361
32 3 -3 -9 -50 -25 -104 -73 -234 -170 -619 -159 -629 20 -20 39 24 101 231
37 125 90 292 118 371 47 136 52 144 77 144 128 0 628 52 773 80 115 22 136
32 144 67 13 49 -13 53 -133 22 -60 -15 -165 -37 -234 -48 -127 -22 -541 -71
-547 -65 -2 1 12 38 32 82 39 87 44 122 20 146 -19 19 -28 20 -42 3z"/>
<path d="M2885 1850 c-108 -17 -205 -60 -291 -127 -92 -74 -133 -168 -91 -211
16 -15 16 -14 5 14 -6 17 -8 43 -4 58 9 35 87 114 149 150 157 92 395 112 534
45 94 -45 110 -136 48 -274 -65 -146 -231 -274 -405 -310 -103 -22 -387 -47
-435 -39 -60 10 -145 43 -190 75 -63 45 -146 70 -235 70 -87 0 -125 -14 -159
-57 -25 -32 -35 -26 -33 22 2 42 32 89 72 109 24 13 70 63 70 78 0 2 -18 -12
-39 -32 -22 -20 -55 -49 -75 -64 -41 -33 -62 -93 -48 -135 13 -41 39 -39 77 5
l33 38 93 0 c102 -1 138 -13 259 -91 79 -50 147 -67 262 -66 125 2 337 27 408
48 261 78 464 335 426 539 -10 53 -67 110 -133 135 -65 24 -208 34 -298 20z"/>
<path d="M4873 1681 c-32 -20 -73 -65 -123 -134 -18 -26 -35 -45 -37 -44 -2 2
4 23 12 47 17 49 19 86 5 95 -16 10 -66 -22 -105 -67 l-36 -43 25 52 c28 56
32 78 16 88 -21 13 -51 -8 -85 -58 -47 -71 -89 -118 -80 -92 25 79 29 106 16
115 -21 12 -41 2 -95 -49 l-48 -46 27 54 c23 47 25 55 12 68 -23 23 -50 2
-106 -80 -49 -74 -121 -164 -121 -153 0 16 51 129 71 157 20 29 20 32 5 47
-15 15 -19 15 -44 2 -41 -23 -69 -74 -87 -155 -22 -96 -18 -129 15 -133 19 -2
37 8 69 40 26 25 41 35 36 23 -4 -11 -10 -35 -13 -52 -6 -48 18 -42 63 15 50
62 107 122 116 122 5 0 9 -21 11 -46 4 -63 27 -78 63 -44 l27 25 -17 -37 c-35
-73 7 -93 53 -25 17 23 49 62 73 86 l44 44 5 -48 c6 -62 30 -80 62 -48 l22 23
11 -33 c14 -43 44 -46 87 -8 30 26 35 28 44 13 10 -15 13 -15 37 1 26 17 123
170 129 203 2 11 -4 20 -14 22 -12 2 -26 -11 -45 -43 -46 -78 -48 -79 -48 -43
0 24 -6 35 -24 44 -24 12 -24 12 18 34 32 16 42 26 39 42 -4 31 -49 40 -85 19z"/>
</g>
</svg>
